<mxfile host="app.diagrams.net" modified="2024-02-16T10:37:10.339Z" agent="Mozilla/5.0 (Windows NT 10.0; Win64; x64) AppleWebKit/537.36 (KHTML, like Gecko) Chrome/121.0.0.0 Safari/537.36" etag="WZRBE7SyI7noaFXC0snC" version="23.1.5" type="google">
  <diagram name="Page-1" id="e-PlSNSSsqR2PJiR_nrL">
    <mxGraphModel grid="1" page="1" gridSize="10" guides="1" tooltips="1" connect="1" arrows="1" fold="1" pageScale="1" pageWidth="827" pageHeight="1169" math="0" shadow="0">
      <root>
        <mxCell id="0" />
        <mxCell id="1" parent="0" />
        <mxCell id="YUgcRc5lp96GnOYCX24d-1" value="Horizontal Tree Layout" style="swimlane;startSize=20;horizontal=0;childLayout=treeLayout;horizontalTree=1;resizable=0;containerType=tree;fontSize=12;" vertex="1" parent="1">
          <mxGeometry y="260" width="740" height="944" as="geometry" />
        </mxCell>
        <mxCell id="YUgcRc5lp96GnOYCX24d-2" value="Migration BDD" style="whiteSpace=wrap;html=1;" vertex="1" parent="YUgcRc5lp96GnOYCX24d-1">
          <mxGeometry x="40" y="448" width="100" height="40" as="geometry" />
        </mxCell>
        <mxCell id="YUgcRc5lp96GnOYCX24d-3" value="Lot 1 : Préaparation" style="whiteSpace=wrap;html=1;" vertex="1" parent="YUgcRc5lp96GnOYCX24d-1">
          <mxGeometry x="190" y="132" width="120" height="40" as="geometry" />
        </mxCell>
        <mxCell id="YUgcRc5lp96GnOYCX24d-4" value="" style="edgeStyle=elbowEdgeStyle;elbow=horizontal;html=1;rounded=1;curved=0;sourcePerimeterSpacing=0;targetPerimeterSpacing=0;startSize=6;endSize=6;" edge="1" parent="YUgcRc5lp96GnOYCX24d-1" source="YUgcRc5lp96GnOYCX24d-2" target="YUgcRc5lp96GnOYCX24d-3">
          <mxGeometry relative="1" as="geometry" />
        </mxCell>
        <mxCell id="YUgcRc5lp96GnOYCX24d-5" value="Lot 2 : Réalisation&amp;nbsp;" style="whiteSpace=wrap;html=1;" vertex="1" parent="YUgcRc5lp96GnOYCX24d-1">
          <mxGeometry x="190" y="484" width="110" height="40" as="geometry" />
        </mxCell>
        <mxCell id="YUgcRc5lp96GnOYCX24d-6" value="" style="edgeStyle=elbowEdgeStyle;elbow=horizontal;html=1;rounded=1;curved=0;sourcePerimeterSpacing=0;targetPerimeterSpacing=0;startSize=6;endSize=6;" edge="1" parent="YUgcRc5lp96GnOYCX24d-1" source="YUgcRc5lp96GnOYCX24d-2" target="YUgcRc5lp96GnOYCX24d-5">
          <mxGeometry relative="1" as="geometry" />
        </mxCell>
        <mxCell id="YUgcRc5lp96GnOYCX24d-7" value="" style="edgeStyle=elbowEdgeStyle;elbow=horizontal;html=1;rounded=1;curved=0;sourcePerimeterSpacing=0;targetPerimeterSpacing=0;startSize=6;endSize=6;" edge="1" parent="YUgcRc5lp96GnOYCX24d-1" source="YUgcRc5lp96GnOYCX24d-2" target="YUgcRc5lp96GnOYCX24d-8">
          <mxGeometry relative="1" as="geometry">
            <mxPoint x="140" y="-2533.3" as="sourcePoint" />
          </mxGeometry>
        </mxCell>
        <mxCell id="YUgcRc5lp96GnOYCX24d-8" value="Lot 3 : Recette" style="whiteSpace=wrap;html=1;" vertex="1" parent="YUgcRc5lp96GnOYCX24d-1">
          <mxGeometry x="190" y="764" width="110" height="40" as="geometry" />
        </mxCell>
        <mxCell id="YUgcRc5lp96GnOYCX24d-9" value="" style="edgeStyle=elbowEdgeStyle;elbow=horizontal;html=1;rounded=1;curved=0;sourcePerimeterSpacing=0;targetPerimeterSpacing=0;startSize=6;endSize=6;" edge="1" parent="YUgcRc5lp96GnOYCX24d-1" source="YUgcRc5lp96GnOYCX24d-3" target="YUgcRc5lp96GnOYCX24d-10">
          <mxGeometry relative="1" as="geometry">
            <mxPoint x="140" y="-2453.3" as="sourcePoint" />
          </mxGeometry>
        </mxCell>
        <mxCell id="YUgcRc5lp96GnOYCX24d-10" value="Lot 1.1 : Rétro conception" style="whiteSpace=wrap;html=1;" vertex="1" parent="YUgcRc5lp96GnOYCX24d-1">
          <mxGeometry x="360" y="20" width="120" height="40" as="geometry" />
        </mxCell>
        <mxCell id="YUgcRc5lp96GnOYCX24d-11" value="" style="edgeStyle=elbowEdgeStyle;elbow=horizontal;html=1;rounded=1;curved=0;sourcePerimeterSpacing=0;targetPerimeterSpacing=0;startSize=6;endSize=6;" edge="1" parent="YUgcRc5lp96GnOYCX24d-1" source="YUgcRc5lp96GnOYCX24d-5" target="YUgcRc5lp96GnOYCX24d-12">
          <mxGeometry relative="1" as="geometry">
            <mxPoint x="140" y="-2453.3" as="sourcePoint" />
          </mxGeometry>
        </mxCell>
        <mxCell id="YUgcRc5lp96GnOYCX24d-12" value="Lot 2.2 : Installation du serveur" style="whiteSpace=wrap;html=1;" vertex="1" parent="YUgcRc5lp96GnOYCX24d-1">
          <mxGeometry x="350" y="484" width="110" height="40" as="geometry" />
        </mxCell>
        <mxCell id="YUgcRc5lp96GnOYCX24d-13" value="" style="edgeStyle=elbowEdgeStyle;elbow=horizontal;html=1;rounded=1;curved=0;sourcePerimeterSpacing=0;targetPerimeterSpacing=0;startSize=6;endSize=6;" edge="1" parent="YUgcRc5lp96GnOYCX24d-1" source="YUgcRc5lp96GnOYCX24d-8" target="YUgcRc5lp96GnOYCX24d-14">
          <mxGeometry relative="1" as="geometry">
            <mxPoint x="140" y="-2453.3" as="sourcePoint" />
          </mxGeometry>
        </mxCell>
        <mxCell id="YUgcRc5lp96GnOYCX24d-14" value="Lot 3.1 : Données de facturation" style="whiteSpace=wrap;html=1;" vertex="1" parent="YUgcRc5lp96GnOYCX24d-1">
          <mxGeometry x="350" y="684" width="110" height="40" as="geometry" />
        </mxCell>
        <mxCell id="YUgcRc5lp96GnOYCX24d-15" value="" style="edgeStyle=elbowEdgeStyle;elbow=horizontal;html=1;rounded=1;curved=0;sourcePerimeterSpacing=0;targetPerimeterSpacing=0;startSize=6;endSize=6;" edge="1" parent="YUgcRc5lp96GnOYCX24d-1" source="YUgcRc5lp96GnOYCX24d-3" target="YUgcRc5lp96GnOYCX24d-16">
          <mxGeometry relative="1" as="geometry">
            <mxPoint x="290" y="-2533.3" as="sourcePoint" />
          </mxGeometry>
        </mxCell>
        <mxCell id="YUgcRc5lp96GnOYCX24d-16" value="Lot 1.2 : Stratégie de migration de donnée" style="whiteSpace=wrap;html=1;" vertex="1" parent="YUgcRc5lp96GnOYCX24d-1">
          <mxGeometry x="360" y="100" width="120" height="40" as="geometry" />
        </mxCell>
        <mxCell id="YUgcRc5lp96GnOYCX24d-17" value="" style="edgeStyle=elbowEdgeStyle;elbow=horizontal;html=1;rounded=1;curved=0;sourcePerimeterSpacing=0;targetPerimeterSpacing=0;startSize=6;endSize=6;" edge="1" parent="YUgcRc5lp96GnOYCX24d-1" source="YUgcRc5lp96GnOYCX24d-3" target="YUgcRc5lp96GnOYCX24d-18">
          <mxGeometry relative="1" as="geometry">
            <mxPoint x="290" y="-2413.3" as="sourcePoint" />
          </mxGeometry>
        </mxCell>
        <mxCell id="YUgcRc5lp96GnOYCX24d-18" value="Lot 1.3 : Codage des scripts" style="whiteSpace=wrap;html=1;" vertex="1" parent="YUgcRc5lp96GnOYCX24d-1">
          <mxGeometry x="360" y="244" width="120" height="40" as="geometry" />
        </mxCell>
        <mxCell id="YUgcRc5lp96GnOYCX24d-19" value="" style="edgeStyle=elbowEdgeStyle;elbow=horizontal;html=1;rounded=1;curved=0;sourcePerimeterSpacing=0;targetPerimeterSpacing=0;startSize=6;endSize=6;" edge="1" parent="YUgcRc5lp96GnOYCX24d-1" source="YUgcRc5lp96GnOYCX24d-18" target="YUgcRc5lp96GnOYCX24d-20">
          <mxGeometry relative="1" as="geometry">
            <mxPoint x="290" y="-2233.3" as="sourcePoint" />
          </mxGeometry>
        </mxCell>
        <mxCell id="YUgcRc5lp96GnOYCX24d-20" value="Tâche 1.3.1 : Script de réalisation de shéma&amp;nbsp;" style="whiteSpace=wrap;html=1;" vertex="1" parent="YUgcRc5lp96GnOYCX24d-1">
          <mxGeometry x="530" y="164" width="190" height="40" as="geometry" />
        </mxCell>
        <mxCell id="YUgcRc5lp96GnOYCX24d-21" value="" style="edgeStyle=elbowEdgeStyle;elbow=horizontal;html=1;rounded=1;curved=0;sourcePerimeterSpacing=0;targetPerimeterSpacing=0;startSize=6;endSize=6;" edge="1" parent="YUgcRc5lp96GnOYCX24d-1" source="YUgcRc5lp96GnOYCX24d-18" target="YUgcRc5lp96GnOYCX24d-22">
          <mxGeometry relative="1" as="geometry">
            <mxPoint x="290" y="-2233.3" as="sourcePoint" />
          </mxGeometry>
        </mxCell>
        <mxCell id="YUgcRc5lp96GnOYCX24d-22" value="Tâche 1.3.2 : Scripts d&#39;export de la BDD MySQL" style="whiteSpace=wrap;html=1;" vertex="1" parent="YUgcRc5lp96GnOYCX24d-1">
          <mxGeometry x="530" y="244" width="190" height="40" as="geometry" />
        </mxCell>
        <mxCell id="YUgcRc5lp96GnOYCX24d-23" value="" style="edgeStyle=elbowEdgeStyle;elbow=horizontal;html=1;rounded=1;curved=0;sourcePerimeterSpacing=0;targetPerimeterSpacing=0;startSize=6;endSize=6;" edge="1" parent="YUgcRc5lp96GnOYCX24d-1" source="YUgcRc5lp96GnOYCX24d-18" target="YUgcRc5lp96GnOYCX24d-24">
          <mxGeometry relative="1" as="geometry">
            <mxPoint x="290" y="-2017.3" as="sourcePoint" />
          </mxGeometry>
        </mxCell>
        <mxCell id="YUgcRc5lp96GnOYCX24d-24" value="Tâche 1.3.3 : Script de peuplement de la base PostgreSQL" style="whiteSpace=wrap;html=1;" vertex="1" parent="YUgcRc5lp96GnOYCX24d-1">
          <mxGeometry x="530" y="324" width="190" height="40" as="geometry" />
        </mxCell>
        <mxCell id="YUgcRc5lp96GnOYCX24d-25" value="" style="edgeStyle=elbowEdgeStyle;elbow=horizontal;html=1;rounded=1;curved=0;sourcePerimeterSpacing=0;targetPerimeterSpacing=0;startSize=6;endSize=6;" edge="1" parent="YUgcRc5lp96GnOYCX24d-1" source="YUgcRc5lp96GnOYCX24d-12" target="YUgcRc5lp96GnOYCX24d-26">
          <mxGeometry relative="1" as="geometry">
            <mxPoint x="300" y="-1521.3" as="sourcePoint" />
          </mxGeometry>
        </mxCell>
        <mxCell id="YUgcRc5lp96GnOYCX24d-26" value="Tâche 2.2.1 : Configuration du serveur Linux" style="whiteSpace=wrap;html=1;" vertex="1" parent="YUgcRc5lp96GnOYCX24d-1">
          <mxGeometry x="510" y="404" width="170" height="40" as="geometry" />
        </mxCell>
        <mxCell id="YUgcRc5lp96GnOYCX24d-27" value="" style="edgeStyle=elbowEdgeStyle;elbow=horizontal;html=1;rounded=1;curved=0;sourcePerimeterSpacing=0;targetPerimeterSpacing=0;startSize=6;endSize=6;" edge="1" parent="YUgcRc5lp96GnOYCX24d-1" source="YUgcRc5lp96GnOYCX24d-12" target="YUgcRc5lp96GnOYCX24d-28">
          <mxGeometry relative="1" as="geometry">
            <mxPoint x="300" y="-1209.3" as="sourcePoint" />
          </mxGeometry>
        </mxCell>
        <mxCell id="YUgcRc5lp96GnOYCX24d-28" value="Tâche 2.2.2 : Installation de PostgreSQL" style="whiteSpace=wrap;html=1;" vertex="1" parent="YUgcRc5lp96GnOYCX24d-1">
          <mxGeometry x="510" y="484" width="170" height="40" as="geometry" />
        </mxCell>
        <mxCell id="YUgcRc5lp96GnOYCX24d-29" value="" style="edgeStyle=elbowEdgeStyle;elbow=horizontal;html=1;rounded=1;curved=0;sourcePerimeterSpacing=0;targetPerimeterSpacing=0;startSize=6;endSize=6;" edge="1" parent="YUgcRc5lp96GnOYCX24d-1" source="YUgcRc5lp96GnOYCX24d-12" target="YUgcRc5lp96GnOYCX24d-30">
          <mxGeometry relative="1" as="geometry">
            <mxPoint x="300" y="-881.3" as="sourcePoint" />
          </mxGeometry>
        </mxCell>
        <mxCell id="YUgcRc5lp96GnOYCX24d-30" value="Tâche 2.2.3 : Exécution des scripts de migration" style="whiteSpace=wrap;html=1;" vertex="1" parent="YUgcRc5lp96GnOYCX24d-1">
          <mxGeometry x="510" y="564" width="170" height="40" as="geometry" />
        </mxCell>
        <mxCell id="YUgcRc5lp96GnOYCX24d-31" value="" style="edgeStyle=elbowEdgeStyle;elbow=horizontal;html=1;rounded=1;curved=0;sourcePerimeterSpacing=0;targetPerimeterSpacing=0;startSize=6;endSize=6;" edge="1" parent="YUgcRc5lp96GnOYCX24d-1" source="YUgcRc5lp96GnOYCX24d-14" target="YUgcRc5lp96GnOYCX24d-32">
          <mxGeometry relative="1" as="geometry">
            <mxPoint x="300" y="-373.29999999999995" as="sourcePoint" />
          </mxGeometry>
        </mxCell>
        <mxCell id="YUgcRc5lp96GnOYCX24d-32" value="Tâche 3.1.2 : Intégrité des données" style="whiteSpace=wrap;html=1;" vertex="1" parent="YUgcRc5lp96GnOYCX24d-1">
          <mxGeometry x="510" y="724" width="150" height="40" as="geometry" />
        </mxCell>
        <mxCell id="YUgcRc5lp96GnOYCX24d-33" value="" style="edgeStyle=elbowEdgeStyle;elbow=horizontal;html=1;rounded=1;curved=0;sourcePerimeterSpacing=0;targetPerimeterSpacing=0;startSize=6;endSize=6;" edge="1" parent="YUgcRc5lp96GnOYCX24d-1" source="YUgcRc5lp96GnOYCX24d-14" target="YUgcRc5lp96GnOYCX24d-34">
          <mxGeometry relative="1" as="geometry">
            <mxPoint x="300" y="-365.29999999999995" as="sourcePoint" />
          </mxGeometry>
        </mxCell>
        <mxCell id="YUgcRc5lp96GnOYCX24d-34" value="Tâche 3.1.1 : Structure des tables" style="whiteSpace=wrap;html=1;" vertex="1" parent="YUgcRc5lp96GnOYCX24d-1">
          <mxGeometry x="510" y="644" width="150" height="40" as="geometry" />
        </mxCell>
        <mxCell id="YUgcRc5lp96GnOYCX24d-35" value="" style="edgeStyle=elbowEdgeStyle;elbow=horizontal;html=1;rounded=1;curved=0;sourcePerimeterSpacing=0;targetPerimeterSpacing=0;startSize=6;endSize=6;" edge="1" parent="YUgcRc5lp96GnOYCX24d-1" source="YUgcRc5lp96GnOYCX24d-8" target="YUgcRc5lp96GnOYCX24d-36">
          <mxGeometry relative="1" as="geometry">
            <mxPoint x="140" y="-621.3" as="sourcePoint" />
          </mxGeometry>
        </mxCell>
        <mxCell id="YUgcRc5lp96GnOYCX24d-36" value="Lot 3.2 : Données client" style="whiteSpace=wrap;html=1;" vertex="1" parent="YUgcRc5lp96GnOYCX24d-1">
          <mxGeometry x="350" y="844" width="110" height="40" as="geometry" />
        </mxCell>
        <mxCell id="YUgcRc5lp96GnOYCX24d-49" value="" style="edgeStyle=elbowEdgeStyle;elbow=horizontal;html=1;rounded=1;curved=0;sourcePerimeterSpacing=0;targetPerimeterSpacing=0;startSize=6;endSize=6;" edge="1" parent="YUgcRc5lp96GnOYCX24d-1" source="YUgcRc5lp96GnOYCX24d-36" target="YUgcRc5lp96GnOYCX24d-50">
          <mxGeometry relative="1" as="geometry">
            <mxPoint x="300" y="1080" as="sourcePoint" />
          </mxGeometry>
        </mxCell>
        <mxCell id="YUgcRc5lp96GnOYCX24d-50" value="Tâche 3.2.1 : Structure des tables" style="whiteSpace=wrap;html=1;" vertex="1" parent="YUgcRc5lp96GnOYCX24d-1">
          <mxGeometry x="510" y="804" width="150" height="40" as="geometry" />
        </mxCell>
        <mxCell id="YUgcRc5lp96GnOYCX24d-51" value="" style="edgeStyle=elbowEdgeStyle;elbow=horizontal;html=1;rounded=1;curved=0;sourcePerimeterSpacing=0;targetPerimeterSpacing=0;startSize=6;endSize=6;" edge="1" parent="YUgcRc5lp96GnOYCX24d-1" source="YUgcRc5lp96GnOYCX24d-36" target="YUgcRc5lp96GnOYCX24d-52">
          <mxGeometry relative="1" as="geometry">
            <mxPoint x="300" y="1086" as="sourcePoint" />
          </mxGeometry>
        </mxCell>
        <mxCell id="YUgcRc5lp96GnOYCX24d-52" value="Tâche 3.2.2 : Intégrité des données" style="whiteSpace=wrap;html=1;" vertex="1" parent="YUgcRc5lp96GnOYCX24d-1">
          <mxGeometry x="510" y="884" width="150" height="40" as="geometry" />
        </mxCell>
      </root>
    </mxGraphModel>
  </diagram>
</mxfile>
